<svg xmlns="http://www.w3.org/2000/svg" style="isolation:isolate" viewBox="0 0 618.324 696.535">
  <defs>
    <clipPath id="a">
      <path d="M0 0h618.324v696.535H0z"/>
    </clipPath>
  </defs>
  <g clip-path="url(#a)">
    <path fill="#EC8FAD" fill-opacity=".56" stroke="#464646" stroke-linecap="square" stroke-miterlimit="3" stroke-width="15" d="M114.552 400.5c-3.666-4-25-13.667-45-9-31.333 6-57 73.667-14 91-66 30.667-16.666 93.667 4 90-43.333 40.667 56.667 91.333 87 59 22.667 45 114.334 40.667 131 18 40.334 43.667 124.334 18.667 134 4 46.334 33.333 102.667 9.667 107-19 59.334 2 60.667-53.667 51-71 50.334-40 16-89.333-4-95 27-17.667 20.334-69.667-28-73-11.666-55-54-26.667-64-24-197-9.333-213-11.333-359 29z" vector-effect="non-scaling-stroke"/>
    <path fill="#E1C9CF" stroke="#464646" stroke-linecap="square" stroke-miterlimit="3" stroke-width="15" d="M354.552 54.5q-50.666 41.333-29 73c30.334 33.667 86.334-49 134-18 139 80.333 56.334 330.333-44 390-143.666 67.667-242-73-269-52-43 13-88-50.5-45-76 16.624-9.859 21 13.667 32 0 5.667-19 19-32.333 38-38 35.667-11.667 82.334 40.333 124-22 22.334-42.333-50.333-65-28-127q-45.666-92 61-162l26 32z" vector-effect="non-scaling-stroke"/>
    <linearGradient id="b" x1=".535" x2=".438" y1=".38" y2=".908" gradientTransform="matrix(573.324 0 0 312.189 22.228 361.845)" gradientUnits="userSpaceOnUse">
      <stop offset="0%" stop-color="#ec8fad"/>
      <stop offset="98.261%" stop-color="#e37296"/>
    </linearGradient>
    <path fill="url(#b)" d="M114.416 400.5c-3.666-4-25-13.667-45-9-31.333 6-57 73.667-14 91-66 30.667-16.666 93.667 4 90-43.333 40.667 56.667 91.333 87 59 22.667 45 114.334 40.667 131 18 40.334 43.667 124.334 18.667 134 4 46.334 33.333 102.667 9.667 107-19 59.334 2 60.667-53.667 51-71 50.334-40 16-89.333-4-95 27-17.667 20.334-69.667-28-73-11.666-55-54-26.667-64-24-197-9.333-213-11.333-359 29z"/>
    <linearGradient id="c" x1=".512" x2=".509" y1=".597" y2=".959" gradientTransform="matrix(489.687 0 0 260.107 64.058 370.426)" gradientUnits="userSpaceOnUse">
      <stop offset="1.739%" stop-color="#e1b5c0"/>
      <stop offset="97.826%" stop-color="#d998a8"/>
    </linearGradient>
    <path fill="url(#c)" d="M136.625 381.5c-31.323-7.5-46.56-.412-52.073 5-24.5 20-20.5 82.5 0 96-36 36-18 71.5 4 90 58.5 77 548 104 453-90 14.5-46.5-.5-81.5-40-91-16.98-25.003-295-27-364.927-10z"/>
    <linearGradient id="d" x1=".593" x2=".543" y1=".477" y2=".837" gradientTransform="matrix(448.778 0 0 495.564 84.266 22.5)" gradientUnits="userSpaceOnUse">
      <stop offset="1.304%" stop-color="#e1c9cf"/>
      <stop offset="97.391%" stop-color="#e1b5c0"/>
    </linearGradient>
    <path fill="url(#d)" d="M354.416 54.5q-50.666 41.333-29 73c30.334 33.667 86.334-49 134-18 139 80.333 56.334 330.333-44 390-143.666 67.667-242-73-269-52-43 13-87.416-52.032-45-76 16.827-9.508 21 13.667 32 0 5.667-19 19-32.333 38-38 35.667-11.667 82.334 40.333 124-22 22.334-42.333-50.333-65-28-127q-45.666-92 61-162l26 32z"/>
    <path fill="#464646" d="M85.552 484.5c-.937-2.625-3.156-5.813-4-5.313-139.666 195.646 596.75 213.563 459 1.313 0 0-2.625 2.625-2 6 118.75 200-582.5 176.75-453-2z"/>
    <path fill="#464646" d="M88.552 383.5c-3.937 1.313-7.156 1.5-8 2-96.5 171 315.25 223.75 411 99 0 0 1.441-1.831 0-4-82 119.75-508.75 77.5-403-97z"/>
    <path fill="#464646" d="M154.227 432.5c101.325 103.5 305.825 87.75 359.325-71 2.382.019 3.888-.07 5 2-53.052 164.463-271.25 176.5-365 71.843-2.812-2.78-5.125-5.155-6-1.843-.937-4.562 1.657-5.719 6.675-1z"/>
    <path fill="#464646" d="M503.552 396.5c-.75-1.67.75-4.92 3-4.67 107 31.92 5 284.92-312 182.67 0 0-1.968-.563-1.375-2.982C497.219 670.5 609.552 427.75 503.552 396.5zM427.97 303.982c2.682-2.127 6.191.294 4.981 4.106-6.933 14.056-27.984 19.335-45.173.238-2.044-2.742.597-6.515 4.259-4.719 10.456 6.981 20.325 18.289 35.933.375zM481.552 289.414c3.25 3.25 8.125.375 7-5-7.375-20.125-34.25-30-59-6-3 3.5 0 9 5 7 14.5-8.25 28.75-22.5 47 4zM331.717 288.566c-3.25 3.25-8.125.375-7-5 7.375-20.125 34.25-30 59-6 3 3.5 0 9-5 7-14.5-8.25-28.75-22.5-47 4zM338.41 41.337c-9.586-12.005-13.342-24.968-8.382-28.928 4.96-3.96 16.769 2.571 26.355 14.577 9.586 12.005 13.342 24.967 8.382 28.927-4.96 3.96-16.769-2.571-26.355-14.576z"/>
  </g>
</svg>
