<svg xmlns="http://www.w3.org/2000/svg" style="isolation:isolate" viewBox="0 0 583.67 666.43">
  <g style="isolation:isolate">
    <path fill="#464646" d="M314.218 111.746c26.5 26.25 79.5-50.25 129-22 87.75 52.25 92.5 164.75 60 256 9.625 4.375 18.5 16.625 22 32 61.75 13.5 43.625 68.75 32 77 36.5 25.125 33.375 72.5 2 97 11.594 44.88-11.572 64.932-33.139 71.927-7.265 2.356-14.349 3.23-19.861 3.073-9.625 39.5-74.625 46.625-111 21-29.625 22.5-106 28.625-134.312-4-32.188 29.25-121.438 12-132.688-17-39.25 27.125-127.625-22.625-95-64-38.25-13.5-48-72.75-5-94-35.125-18.875-15.25-97.625 35-97 5.625-8.875 10.562-13.313 16-17 20.937-12.813 29.312 10.062 33 0 6.25-18.75 22-34.333 41-40 40.75-12 77.75 38.875 120-16.5 22.75-37.5-47.75-59-28-127-52.5-100 59.5-166 65.164-170.091 4.965-3.954 16.769 2.571 26.355 14.576 9.586 12.006 13.341 24.968 8.381 28.928-4.959 3.96-54.15 37.587-30.9 67.087z"/>
    <g opacity=".91">
      <linearGradient id="a" x1=".535" x2=".438" y1=".38" y2=".908" gradientTransform="matrix(573.32 0 0 312.19 5.58 348.59)" gradientUnits="userSpaceOnUse">
        <stop offset="0%" stop-color="#ec8fad"/>
        <stop offset="98.261%" stop-color="#e37296"/>
      </linearGradient>
      <path fill="url(#a)" d="M97.77 387.246c-3.667-4-25-13.667-45-9-31.334 6-57 73.667-14 91-66 30.667-16.667 93.667 4 90-43.334 40.667 56.666 91.333 87 59 22.666 45 114.333 40.667 131 18 40.333 43.667 124.333 18.667 134 4 46.333 33.333 102.666 9.667 107-19 59.333 2 60.666-53.667 51-71 50.333-40 16-89.333-4-95 27-17.667 20.333-69.667-28-73-11.667-55-54-26.667-64-24-197-9.333-213-11.333-359 29z"/>
      <linearGradient id="b" x1=".512" x2=".509" y1=".597" y2=".959" gradientTransform="matrix(489.69 0 0 260.11 47.41 357.17)" gradientUnits="userSpaceOnUse">
        <stop offset="1.739%" stop-color="#e1b5c0"/>
        <stop offset="97.826%" stop-color="#d998a8"/>
      </linearGradient>
      <path fill="url(#b)" d="M119.978 368.246c-31.322-7.5-46.56-.412-52.072 5-24.5 20-20.5 82.5 0 96-36 36-18 71.5 4 90 58.5 77 548 104 453-90 14.5-46.5-.5-81.5-40-91-16.98-25.003-295-27-364.928-10z"/>
      <linearGradient id="c" x1=".593" x2=".543" y1=".477" y2=".837" gradientTransform="matrix(448.78 0 0 497.06 67.62 7.75)" gradientUnits="userSpaceOnUse">
        <stop offset="1.304%" stop-color="#e1c9cf"/>
        <stop offset="97.391%" stop-color="#e1b5c0"/>
      </linearGradient>
      <path fill="url(#c)" d="M339.218 42.746q-52.115 39.833-30.448 71.5c30.333 33.667 86.333-49 134-18 139 80.333 56.333 330.333-44 390-143.667 67.667-242-73-269-52-43 13-87.416-52.032-45-76 16.827-9.508 21 13.667 32 0 5.666-19 19-32.333 38-38 35.666-11.667 82.333 40.333 124-22 22.333-42.333-50.334-65-28-127q-45.667-92 59.448-163.5l29 35z"/>
      <path fill="#EC8FAD" d="M317.892 30.595c-7.852-9.834-11.048-20.357-7.132-23.484 3.916-3.127 13.47 2.319 21.323 12.153 7.852 9.834 11.048 20.357 7.132 23.484-3.916 3.127-13.471-2.319-21.323-12.153z"/>
    </g>
    <g fill="#464646" style="isolation:isolate">
      <path d="M68.906 471.246c-.938-2.625-3.156-5.813-4-5.313-139.667 195.646 596.75 213.563 459 1.313 0 0-2.625 2.625-2 6 118.75 200-582.5 176.75-453-2z"/>
      <path d="M71.906 370.246c-3.938 1.312-7.156 1.5-8 2-97.938 171 315.25 223.75 411 99 0 0 1.44-1.831 0-4-82 119.75-508.75 77.5-403-97z"/>
      <path d="M137.581 419.246c101.325 103.5 305.825 87.75 359.325-71 2.382.019 3.888-.07 5 2-53.053 164.463-271.25 176.5-365 71.843-2.188-2.093-4.251-4.531-6.688-3.343.375-2.313 4.312-2.563 7.363.5z"/>
      <path d="M486.906 383.246c-.75-1.67.75-4.92 3-4.67 107 31.92 5 284.92-312 182.67 0 0-1.969-.563-1.375-2.982 304.042 98.982 416.375-143.768 310.375-175.018z"/>
    </g>
    <g fill="#464646" style="isolation:isolate">
      <path d="M411.324 290.728c2.682-2.127 6.191.293 4.98 4.106-6.933 14.056-27.983 19.335-45.172.238-2.045-2.742.597-6.515 4.259-4.719 10.456 6.981 20.324 18.289 35.933.375zM464.906 276.16c3.25 3.25 8.125.375 7-5-7.375-20.125-34.25-30-59-6-3 3.5 0 9 5 7 14.5-8.25 28.75-22.5 47 4zM315.071 275.312c-3.25 3.25-8.125.375-7-5 7.375-20.125 34.25-30 59-6 3 3.5 0 9-5 7-14.5-8.25-28.75-22.5-47 4z"/>
    </g>
  </g>
</svg>
