<svg xmlns="http://www.w3.org/2000/svg" style="isolation:isolate" viewBox="0 0 596.746 677.464">
  <defs>
    <clipPath id="a">
      <path d="M0 0h596.746v677.464H0z"/>
    </clipPath>
  </defs>
  <g clip-path="url(#a)" data-cite="BF120688556B3F5946F99DB06A3A95517AEA3BDD">
    <path fill="none" d="M0 0h596.746v677.464H0z"/>
    <g style="isolation:isolate">
      <path fill="#464646" d="M324 112.823c18.25 27.25 71.25-50 128.442-23.367 92.558 51.034 96.225 166.7 64.16 259.605 9.837 4.465 16.902 15.978 20.47 31.69 63.122 13.754 44.552 71.236 32.661 79.676 37.299 25.653 34.07 74.075 1.975 99.138 11.822 45.863-11.877 66.374-33.931 73.538-7.43 2.413-14.673 3.312-20.309 3.155-9.868 40.378-76.328 47.707-113.499 21.542-30.305 23.018-108.394 30.333-137.316-2.992-32.93 29.918-123.165 12.352-134.646-17.28C91.859 665.279.541 613.495 33.926 571.184c-39.097-13.77-49.023-74.32-5.045-96.07C-7.017 455.848 13 376.168 64.734 371.949 70.5 364.168 76.75 359.668 84 355.823c23.25-12.905 28.75 2.032 30.843-4.284 6.403-19.168 22.517-30.106 41.946-35.912C199 300.168 238 349.918 272.487 301.677c23.287-38.343-46.728-55.34-26.487-124.854C192.396 74.654 309.902 5.191 315.696 1.006c5.079-4.045 21.143 4.616 30.935 16.879 9.791 12.263 13.622 29.509 8.548 33.56C335 68.573 307 94.073 324 112.823z"/>
      <g opacity=".91">
        <linearGradient id="b" x1=".535" x2=".438" y1=".38" y2=".908" gradientTransform="matrix(573.324 0 0 312.189 12.327 353.768)" gradientUnits="userSpaceOnUse">
          <stop offset="2.174%" stop-color="#ed64a6"/>
          <stop offset="99.13%" stop-color="#d53f8c"/>
        </linearGradient>
        <path fill="url(#b)" d="M104.516 392.423c-3.667-4-25-13.667-45-9-31.334 6-57 73.667-14 91-66 30.667-16.667 93.667 4 90-43.334 40.667 56.666 91.333 87 59 22.666 45 114.333 40.667 131 18 40.333 43.667 124.333 18.667 134 4 46.333 33.333 102.666 9.667 107-19 59.333 2 60.666-53.667 51-71 50.333-40 16-89.333-4-95 27-17.667 20.333-69.667-28-73-11.667-55-54-26.667-64-24-197-9.333-213-11.333-359 29z"/>
        <linearGradient id="c" x1=".512" x2=".509" y1=".597" y2=".959" gradientTransform="matrix(489.687 0 0 260.107 54.157 362.349)" gradientUnits="userSpaceOnUse">
          <stop offset="1.739%" stop-color="#fbb6ce"/>
          <stop offset="100%" stop-color="#fbb6ce"/>
        </linearGradient>
        <path fill="url(#c)" d="M126.724 373.423c-31.322-7.5-46.56-.412-52.072 5-24.5 20-20.5 82.5 0 96-36 36-18 71.5 4 90 58.5 77 548 104 453-90 14.5-46.5-.5-81.5-40-91-16.98-25.003-295-27-364.928-10z"/>
        <linearGradient id="d" x1=".595" x2=".539" y1=".464" y2=".877" gradientTransform="matrix(448.778 0 0 497.064 74.366 12.923)" gradientUnits="userSpaceOnUse">
          <stop offset="1.304%" stop-color="#fed7e2"/>
          <stop offset="100%" stop-color="#fbb6ce"/>
        </linearGradient>
        <path fill="url(#d)" d="M345.963 47.923q-52.114 39.833-30.447 71.5c30.333 33.667 86.333-49 134-18 139 80.333 56.333 330.333-44 390-143.667 67.667-242-73-269-52-43 13-87.417-52.032-45-76 16.827-9.508 22.172 13.745 32 0 5.666-19 19-32.333 38-38 35.666-11.667 82.333 40.333 124-22 22.333-42.333-50.334-65-28-127q-45.667-92 59.447-163.5l29 35z"/>
        <path fill="#ED64A6" d="M324.638 35.772c-7.852-9.834-11.048-20.357-7.132-23.484 3.916-3.126 13.47 2.319 21.323 12.153 7.852 9.835 11.048 20.357 7.132 23.484-3.916 3.127-13.471-2.318-21.323-12.153z"/>
      </g>
      <g fill="#464646" style="isolation:isolate">
        <path d="M75.652 476.423c-.938-2.625-3.157-5.813-4-5.313-139.667 195.646 596.75 213.563 459 1.313 0 0-2.625 2.625-2 6 118.75 200-582.5 176.75-453-2z"/>
        <path d="M78.652 375.423c-3.938 1.313-7.157 1.5-8 2-97.939 171 315.25 223.75 411 99 0 0 1.44-1.831 0-4-82 119.75-508.75 77.5-403-97z"/>
        <path d="M144.327 424.423c101.325 103.5 305.825 87.75 359.325-71 2.381.019 3.888-.069 5 2-53.053 164.463-271.25 176.5-365 71.843-2.189-2.093-4.251-4.53-6.689-3.343.375-2.312 4.313-2.562 7.364.5z"/>
        <path d="M493.652 388.423c-.75-1.67.75-4.92 3-4.67 107 31.92 5 284.92-312 182.67 0 0-1.969-.562-1.375-2.982 304.041 98.982 416.375-143.768 310.375-175.018z"/>
      </g>
      <g fill="#464646" style="isolation:isolate">
        <path d="M418.07 296.905c2.682-2.127 8.18 5.263 5.98 8.106-9.383 14.907-33.717 17.24-48.172-.761-2.045-2.743 2.597-9.516 6.259-7.72 9.863 8.055 20.196 17.721 35.933.375zM470.652 282.337c3.25 3.25 9.125-.625 8-6-7.375-20.125-34.25-30-59-6-3 3.5 1 10 6 8 14.5-8.25 26.75-22.5 45 4zM322.817 281.489c-3.25 3.25-9.125-.625-8-6 7.375-20.125 34.25-30 59-6 3 3.5-1 10-6 8-14.5-8.25-26.75-22.5-45 4z"/>
      </g>
    </g>
  </g>
</svg>
